<?xml version="1.0" encoding="UTF-8"?>
<svg width="22px" height="31px" viewBox="0 0 22 31" version="1.1" xmlns="http://www.w3.org/2000/svg" xmlns:xlink="http://www.w3.org/1999/xlink">
    <title>Group 3 Copy</title>
    <g id="Symbols" stroke="none" stroke-width="1" fill="none" fill-rule="evenodd">
        <g id="Group-3-Copy" fill-rule="nonzero">
            <path d="M20.4001227,6.0036528 C6.80303601,6.00078438 0.00299509695,5.99926295 0,5.99908851 L0,25.3785451 C0.0318137173,26.0189603 0.279207712,26.6298096 0.702,27.1118785 C0.841054442,27.2999753 1.00422983,27.4689784 1.18733333,27.6145451 L1.404,27.8225451 L1.57733333,27.9958785 L1.82866667,28.2212118 C1.92350799,28.3420003 2.02783929,28.4550258 2.14066667,28.5592118 C2.21434774,28.6386826 2.29247298,28.7139143 2.37466667,28.7845451 L2.51333333,28.9232118 C2.59275828,29.0112322 2.67664629,29.0951202 2.76466667,29.1745451 L2.94666667,29.3565451 C3.51164374,29.9474359 4.30547605,30.2637037 5.122,30.2232118 L19.0273333,30.2232118 C20.5865186,30.2921423 21.9113909,29.0947359 22,27.5365451 L22,7.94541368 C21.9997441,7.94071736 20.4756239,6.06334682 20.4001227,6.0036528 Z" id="Path" fill="#000000"></path>
            <path d="M1.06599083,6.98787847 L1.06599083,25.3785451 C1.09022244,25.8465585 1.30292112,26.2848197 1.65560849,26.5934211 C2.00829585,26.9020226 2.47091298,27.0546627 2.938,27.0165451 L17.8606667,27.0165451 C18.3277537,27.0546627 18.7903708,26.9020226 19.1430582,26.5934211 C19.4957455,26.2848197 19.7084442,25.8465585 19.7326667,25.3785451 L19.7326667,6.98787847 C19.7339139,7.00414591 1.06770726,6.95489166 1.06599083,6.98787847 Z" id="Path" fill="#FFFFFF"></path>
            <g id="Group" transform="translate(6.000000, 0.000000)" fill="#000000">
                <path d="M8.78795196,10.067566 C8.63206938,10.0675663 8.48258705,10.0055684 8.37246267,9.89524157 C8.2623383,9.78491476 8.20061506,9.63531883 8.2009016,9.4794365 L8.2009016,4.81217031 C8.2009016,2.90082802 6.65145253,1.35137895 4.74011024,1.35137895 C2.82876794,1.35137895 1.27931887,2.90082802 1.27931887,4.81217031 L1.27931887,9.50425664 C1.27960542,9.65985277 1.21799587,9.80917422 1.10807387,9.91929865 C0.998151878,10.0294231 0.848944031,10.091307 0.693347647,10.091307 C0.36960664,10.091307 0.106297287,9.71145089 0.106297287,9.38770988 L0.106297287,4.81217031 C0.0807740851,3.13962141 0.958452051,1.58308376 2.40281778,0.73935459 C3.84718351,-0.104374577 5.6341161,-0.104374577 7.07848183,0.73935459 C8.52284756,1.58308376 9.40052553,3.13962141 9.37500232,4.81217031 L9.37500232,9.4794365 C9.37528887,9.63531883 9.31356562,9.78491476 9.20344125,9.89524157 C9.09331688,10.0055684 8.94383455,10.0675663 8.78795196,10.067566 Z" id="Path"></path>
                <path d="M0.693347647,10.1970624 C0.302700165,10.1970624 0.000541891708,9.76540772 0.000541891708,9.38770988 L0.000541891708,4.81217031 C-0.0252679496,3.10164754 0.872504202,1.50989796 2.34970848,0.647099127 C3.82691276,-0.215699709 5.65438685,-0.215699709 7.13159113,0.647099127 C8.60879541,1.50989796 9.50656756,3.10164754 9.48075772,4.81217031 L9.48075772,9.4794365 C9.48075772,9.86265855 9.17009487,10.1733214 8.78687283,10.1733214 C8.40365078,10.1733214 8.09298793,9.86265855 8.09298793,9.4794365 L8.09298793,4.81217031 C8.09298793,2.95923511 6.59088717,1.45713434 4.73795196,1.45713434 C2.88501676,1.45713434 1.38291599,2.95923511 1.38291599,4.81217031 L1.38291599,9.50425664 C1.38292016,9.88562197 1.07470881,10.1952803 0.693347647,10.1970624 Z M4.74011024,0.283033623 C2.23694914,0.283033623 0.207736136,2.31224663 0.207736136,4.81540772 L0.207736136,9.39094729 C0.207736136,9.66073147 0.430038295,9.98878902 0.6890311,9.98878902 C0.954421443,9.98819397 1.16924759,9.77288506 1.16924693,9.50749406 L1.16924693,4.81217031 C1.16924693,2.84242093 2.7660443,1.24562355 4.73579369,1.24562355 C6.70554308,1.24562355 8.30234045,2.84242093 8.30234045,4.81217031 L8.30234045,9.4794365 C8.30234048,9.74524835 8.51782356,9.96073142 8.78363542,9.96073142 C9.04944727,9.96073142 9.26493038,9.74524835 9.26493038,9.4794365 L9.26493038,4.81217031 C9.26314889,2.3132202 7.23905752,0.287197906 4.74011024,0.283033623 Z" id="Shape"></path>
            </g>
        </g>
    </g>
</svg>