<?xml version="1.0" encoding="UTF-8"?>
<svg width="24px" height="22px" viewBox="0 0 24 22" version="1.1" xmlns="http://www.w3.org/2000/svg" xmlns:xlink="http://www.w3.org/1999/xlink">
    <title>compare copy</title>
    <g id="Page-1" stroke="none" stroke-width="1" fill="none" fill-rule="evenodd">
        <g id="Group" transform="translate(0.000000, -1.000000)" fill-rule="nonzero">
            <g id="Icon_Shopping_Monline-06" transform="translate(0.000000, 0.800000)">
                <path d="M12.7569231,21.2307692 C12.7216084,21.2461818 12.6814685,21.2461818 12.6461538,21.2307692 L3.94153846,12.0646154 L3.88615385,12 C2.86287345,11.1023637 2.24129352,9.83261217 2.16,8.47384615 C2.23246785,5.3644803 4.72794668,2.8568284 7.83692308,2.76923077 C9.63933085,2.77161322 11.3246402,3.66261692 12.3415385,5.15076923 C12.4296621,5.27192281 12.5701886,5.34389979 12.72,5.34461538 C12.8723659,5.34389752 13.0156985,5.27223121 13.1076923,5.15076923 C14.2516716,3.44711984 16.2536787,2.52798968 18.2913463,2.77093121 C20.3290139,3.01387273 22.0588076,4.37792796 22.7701775,6.30278191 C23.4815474,8.22763586 23.0545623,10.3887737 21.6646154,11.8984615 L12.9230769,21.2307692 C12.8712057,21.2586683 12.8087943,21.2586683 12.7569231,21.2307692 L12.7569231,21.2307692 Z" id="Path" fill="#000000"></path>
                <path d="M17.6123077,3.2122508 C19.5662302,3.23718849 21.3268469,4.39737532 22.1204743,6.18303706 C22.9141018,7.96869879 22.5954767,10.052993 21.3046154,11.52 L12.72,20.5938462 L4.30153846,11.7784615 C4.27903822,11.7406804 4.25103906,11.7064592 4.21846154,11.6769231 C3.27477401,10.8652938 2.69891195,9.7069123 2.62153846,8.46461538 C2.68423935,5.60447779 4.97729898,3.29518411 7.83692308,3.2122508 C9.49970671,3.20440555 11.0585792,4.02013482 12,5.39076923 C12.1721698,5.63894976 12.4548705,5.78719524 12.7569231,5.78769231 C13.0622355,5.79023602 13.3490534,5.64164359 13.5230769,5.39076923 C14.4560197,4.02968941 15.9991055,3.21499533 17.6492308,3.2122508 M17.6492308,2.28923077 C15.6937902,2.28938282 13.863891,3.25266937 12.7569231,4.86461538 C11.6551023,3.25165651 9.82721318,2.28760915 7.87384615,2.28923077 C4.51054406,2.38658513 1.81256768,5.10078994 1.73538462,8.46461538 C1.81167781,9.94284052 2.4765114,11.3290186 3.58153846,12.3138462 L3.58153846,12.3138462 L12.3507692,21.4892308 C12.4700689,21.6109754 12.6326414,21.6806493 12.8030769,21.6832679 C12.9729984,21.6873296 13.1369706,21.6204022 13.2553846,21.4984615 L22.0523077,12.1938462 C23.6317085,10.4503639 24.0302885,7.93773648 23.0679861,5.79106194 C22.1056837,3.64438739 19.9647265,2.27017321 17.6123077,2.28923077 L17.6492308,2.28923077 Z" id="Shape" fill="#000000"></path>
                <path d="M12.1476923,20.3076923 C12.1019961,20.334075 12.0456962,20.334075 12,20.3076923 L3.32307692,11.1507692 L3.26769231,11.0769231 C2.249358,10.1755122 1.62884687,8.90794405 1.54153846,7.55076923 C1.61400631,4.44140338 4.10948514,1.93375148 7.21846154,1.84615385 C9.01954516,1.84484529 10.7052058,2.73258052 11.7230769,4.21846154 C11.8088131,4.34604437 11.9524396,4.42257074 12.1061538,4.42257074 C12.2598681,4.42257074 12.4034946,4.34604437 12.4892308,4.21846154 C13.63321,2.51481214 15.6352172,1.59568199 17.6728848,1.83862351 C19.7105524,2.08156504 21.4403461,3.44562026 22.151716,5.37047421 C22.8630859,7.29532816 22.4361007,9.45646596 21.0461538,10.9661538 L12.2584615,20.3076923 C12.222766,20.3211572 12.1833878,20.3211572 12.1476923,20.3076923 Z" id="Path" fill="#000000"></path>
                <path d="M16.9938462,2.30769138 C19.7569692,2.30769138 21.996945,4.54764614 21.996945,7.31076923 C22.0005841,8.54113686 21.5465382,9.72889455 20.7230769,10.6430769 L12.1384615,19.7169231 L3.69230769,10.8646154 C3.6665603,10.826523 3.63547347,10.7923275 3.6,10.7630769 C2.65631247,9.95144763 2.08045041,8.79306614 2.00307692,7.55076923 C2.06598676,4.69226015 4.36032569,2.38573889 7.21846154,2.30769138 C8.86726436,2.30669174 10.4106995,3.11811738 11.3446154,4.47692308 C11.5165573,4.73130352 11.8037298,4.88353952 12.1107692,4.88307692 C12.4145377,4.8804896 12.6975868,4.72860958 12.8676923,4.47692308 C13.8027011,3.1193483 15.3454377,2.30828989 16.9938462,2.30769138 M16.9938462,1.3845971 C15.0396801,1.3797543 13.2103679,2.34455221 12.1107692,3.96 C11.0060019,2.34558116 9.1746951,1.38155364 7.21846154,1.3845971 C3.85664821,1.47714377 1.15739558,4.18857348 1.08,7.55076923 C1.15629319,9.02899436 1.82112679,10.4151724 2.92615385,11.4 L2.92615385,11.4 L11.6953846,20.5753846 C11.8128502,20.6997824 11.9766004,20.769961 12.1476923,20.7693148 C12.3146387,20.7720233 12.4751982,20.7051235 12.5907692,20.5846154 L21.3969231,11.28 C22.9655188,9.54096714 23.3628391,7.0412756 22.4107574,4.90158676 C21.4586757,2.76189793 19.3357955,1.38360159 16.9938462,1.3845971 Z" id="Shape" fill="#000000"></path>
                <path d="M12.36,15 C12.3424743,15.0083132 12.3221411,15.0083132 12.3046154,15 L7.94769231,10.4492308 C7.44104921,9.99712398 7.13267537,9.36379707 7.08923077,8.68615385 C7.11837738,7.13024017 8.36738531,5.87309538 9.92307692,5.83384615 C10.8210049,5.83923515 11.6605795,6.27966774 12.1753846,7.01538462 C12.2205688,7.07728198 12.2925959,7.1138796 12.3692308,7.1138796 C12.4458656,7.1138796 12.5178927,7.07728198 12.5630769,7.01538462 C13.0871333,6.04276508 14.1391741,5.47470785 15.2398729,5.57002878 C16.3405716,5.66534971 17.2792945,6.40580783 17.6283445,7.45403871 C17.9773944,8.50226959 17.669976,9.65767978 16.8461538,10.3938462 L12.4430769,15.0092308 C12.4161405,15.0236309 12.3831184,15.0199618 12.36,15 Z" id="Path" fill="#7F7F7F"></path>
                <path d="M14.5015385,6.65538285 C15.8809977,6.6604469 16.9980146,7.77746384 17.0030795,9.15692308 C17.0039755,9.77501095 16.7734649,10.3710455 16.3569231,10.8276923 L12.0738462,15.36 L7.84615385,10.9384615 L7.8,10.8830769 C7.3229941,10.4807758 7.03256041,9.89990845 6.99692308,9.27692308 C7.03080174,7.84692115 8.17935724,6.69430716 9.60923077,6.65538285 C10.4357282,6.65600849 11.2089798,7.06334637 11.6769231,7.74461538 C11.7619758,7.87045864 11.9035004,7.94639864 12.0553846,7.94769231 C12.2064764,7.94336534 12.346704,7.86812129 12.4338462,7.74461538 C12.9006902,7.06211153 13.6746443,6.65440354 14.5015385,6.65538285 M14.5015385,6.23076435 C13.52448,6.22899954 12.6093548,6.70900859 12.0553846,7.51384615 C11.5014144,6.70900859 10.5862893,6.22899954 9.60923077,6.23076435 C7.9285091,6.2792295 6.57880503,7.63298674 6.53538462,9.31384615 C6.5723172,10.0545868 6.90483863,10.7495566 7.45846154,11.2430769 L7.45846154,11.2430769 L11.8430769,15.8584615 C11.9046133,15.9187724 11.9876916,15.9520037 12.0738462,15.9508024 C12.1572127,15.9516131 12.2372819,15.918251 12.2953846,15.8584615 L16.6984615,11.2430769 C17.4822,10.3741819 17.6811857,9.12542852 17.2063176,8.05597779 C16.7314496,6.98652705 15.6716764,6.29670016 14.5015385,6.29538462 L14.5015385,6.23076435 Z" id="Shape" fill="#000000"></path>
                <path d="M11.5292308,19.3846154 C11.4832932,19.3835412 11.4398516,19.3634912 11.4092308,19.3292308 L2.70461538,10.2369231 C2.69084885,10.206373 2.672136,10.1783037 2.64923077,10.1538462 C1.63144477,9.25590319 1.01078918,7.99135893 0.923076923,6.63692308 C0.990704017,3.52395674 3.4875375,1.01088369 6.6,0.923076923 C8.3930008,0.9329679 10.0666655,1.8232885 11.0769231,3.30461538 C11.1679368,3.42845529 11.3109883,3.50338704 11.4646154,3.50769231 C11.6157072,3.50336534 11.7559348,3.42812129 11.8430769,3.30461538 C12.9950353,1.62101508 14.9888515,0.719232206 17.0138607,0.965922362 C19.0388698,1.21261252 20.7578723,2.56669748 21.4719396,4.47762028 C22.1860068,6.38854309 21.7762341,8.53810166 20.4092308,10.0523077 L11.64,19.3846154 C11.6040464,19.3965815 11.5651844,19.3965815 11.5292308,19.3846154 L11.5292308,19.3846154 Z" id="Path" fill="#000000"></path>
                <path d="M16.3753846,1.39384523 C19.1385077,1.39384523 21.3784835,3.63379999 21.3784835,6.39692308 C21.3821226,7.62729071 20.9280767,8.8150484 20.1046154,9.72923077 L11.5292308,18.8030769 L3.07384615,9.95076923 L2.98153846,9.84923077 C2.03785093,9.03760147 1.46198887,7.87921999 1.38461538,6.63692308 C1.44752522,3.778414 3.74186415,1.47189274 6.6,1.39384523 C8.24880282,1.39284558 9.79223799,2.20427123 10.7261538,3.56307692 C10.8980958,3.81745737 11.1852682,3.96969336 11.4923077,3.96923077 C11.7960762,3.96664344 12.0791253,3.81476342 12.2492308,3.56307692 C13.1864088,2.20794884 14.7277619,1.39761777 16.3753846,1.39384523 M16.3753846,0.470750949 C14.4212185,0.465908144 12.5919063,1.43070606 11.4923077,3.04615385 C10.3875403,1.431735 8.55623357,0.467707482 6.6,0.470750949 C3.2401785,0.567906493 0.543551839,3.27669838 0.461538462,6.63692308 C0.537831652,8.11514821 1.20266525,9.50132625 2.30769231,10.4861538 L2.30769231,10.4861538 L11.0769231,19.6615385 C11.193437,19.7884308 11.3569822,19.8618592 11.5292308,19.8646154 C11.6973425,19.8638997 11.8576865,19.7937491 11.9723077,19.6707692 L20.7784615,10.3661538 C22.3470573,8.62712099 22.7443776,6.12742944 21.7922959,3.98774061 C20.8402142,1.84805177 18.717334,0.469755433 16.3753846,0.470750949 Z" id="Shape" fill="#000000"></path>
                <path d="M11.5292308,19.3846154 C11.4832932,19.3835412 11.4398516,19.3634912 11.4092308,19.3292308 L2.70461538,10.2369231 C2.69084885,10.206373 2.672136,10.1783037 2.64923077,10.1538462 C1.63144477,9.25590319 1.01078918,7.99135893 0.923076923,6.63692308 C0.990704017,3.52395674 3.4875375,1.01088369 6.6,0.923076923 C8.3930008,0.9329679 10.0666655,1.8232885 11.0769231,3.30461538 C11.1679368,3.42845529 11.3109883,3.50338704 11.4646154,3.50769231 C11.6157072,3.50336534 11.7559348,3.42812129 11.8430769,3.30461538 C12.9950353,1.62101508 14.9888515,0.719232206 17.0138607,0.965922362 C19.0388698,1.21261252 20.7578723,2.56669748 21.4719396,4.47762028 C22.1860068,6.38854309 21.7762341,8.53810166 20.4092308,10.0523077 L11.64,19.3846154 C11.6040464,19.3965815 11.5651844,19.3965815 11.5292308,19.3846154 L11.5292308,19.3846154 Z" id="Path" fill="#FFFFFF"></path>
                <path d="M16.3753846,1.39384523 C19.1385077,1.39384523 21.3784835,3.63379999 21.3784835,6.39692308 C21.3821226,7.62729071 20.9280767,8.8150484 20.1046154,9.72923077 L11.5292308,18.8030769 L3.07384615,9.95076923 L2.98153846,9.84923077 C2.03785093,9.03760147 1.46198887,7.87921999 1.38461538,6.63692308 C1.44752522,3.778414 3.74186415,1.47189274 6.6,1.39384523 C8.24880282,1.39284558 9.79223799,2.20427123 10.7261538,3.56307692 C10.8980958,3.81745737 11.1852682,3.96969336 11.4923077,3.96923077 C11.7960762,3.96664344 12.0791253,3.81476342 12.2492308,3.56307692 C13.1864088,2.20794884 14.7277619,1.39761777 16.3753846,1.39384523 M16.3753846,0.470750949 C14.4212185,0.465908144 12.5919063,1.43070606 11.4923077,3.04615385 C10.3875403,1.431735 8.55623357,0.467707482 6.6,0.470750949 C3.2401785,0.567906493 0.543551839,3.27669838 0.461538462,6.63692308 C0.537831652,8.11514821 1.20266525,9.50132625 2.30769231,10.4861538 L2.30769231,10.4861538 L11.0769231,19.6615385 C11.193437,19.7884308 11.3569822,19.8618592 11.5292308,19.8646154 C11.6973425,19.8638997 11.8576865,19.7937491 11.9723077,19.6707692 L20.7784615,10.3661538 C22.3470573,8.62712099 22.7443776,6.12742944 21.7922959,3.98774061 C20.8402142,1.84805177 18.717334,0.469755433 16.3753846,0.470750949 Z" id="Shape" fill="#000000"></path>
            </g>
        </g>
    </g>
</svg>