<?xml version="1.0" encoding="UTF-8"?>
<svg width="31px" height="31px" viewBox="0 0 31 31" version="1.1" xmlns="http://www.w3.org/2000/svg" xmlns:xlink="http://www.w3.org/1999/xlink">
    <title>Icon_Shopping_Monline-02</title>
    <g id="Symbols" stroke="none" stroke-width="1" fill="none" fill-rule="evenodd">
        <g id="Main-Element/Header-EN" transform="translate(-145.000000, -49.000000)">
            <g id="Icon_Shopping_Monline-02" transform="translate(145.000000, 49.000000)">
                <path d="M20.58,4.36 C17.2290243,0.980792943 12.1382939,0.024258782 7.78928178,1.95665945 C3.4402697,3.88906012 0.738122493,8.30821101 1,13.06 C0.783427517,17.2887138 2.91622966,21.2922668 6.54656013,23.4716302 C10.1768906,25.6509936 14.7131094,25.6509936 18.3434399,23.4716302 C21.9737703,21.2922668 24.1065725,17.2887138 23.89,13.06 C24.0671514,9.82232229 22.864448,6.66113818 20.58,4.36 L20.58,4.36 Z M5.79,13.06 C6.09001561,9.59679484 8.98882403,6.93825168 12.465,6.93825168 C15.941176,6.93825168 18.8399844,9.59679484 19.14,13.06 C18.8399844,16.5232052 15.941176,19.1817483 12.465,19.1817483 C8.98882403,19.1817483 6.09001561,16.5232052 5.79,13.06 Z" id="Shape" fill="#000000" fill-rule="nonzero"></path>
                <path d="M29.32,26.71 L21.84,19.23 C21.5756221,18.9640323 21.2149931,18.8161744 20.84,18.8199276 C20.4658667,18.8205885 20.1068642,18.9677795 19.84,19.23 L19.2,19.87 C18.9359346,20.135644 18.788418,20.4954406 18.7899874,20.87 C18.7905885,21.2441333 18.9377795,21.6031358 19.2,21.87 L26.69,29.35 C26.9519391,29.621312 27.3128763,29.7745467 27.69,29.7745467 C28.0671237,29.7745467 28.4280609,29.621312 28.69,29.35 L29.33,28.71 C29.5987545,28.4466755 29.7502041,28.0862563 29.7502041,27.71 C29.7502041,27.3337437 29.5987545,26.9733245 29.33,26.71 L29.32,26.71 Z" id="Path" fill="#FFFFFF" fill-rule="nonzero"></path>
                <path d="M18,6.9 C15.7512533,4.63345925 12.3570674,3.94787872 9.40488896,5.16390157 C6.45271056,6.37992441 4.52608366,9.25718481 4.52608366,12.45 C4.52608366,15.6428152 6.45271056,18.5200756 9.40488896,19.7360984 C12.3570674,20.9521213 15.7512533,20.2665407 18,18 C19.4741325,16.529207 20.3025728,14.5323781 20.3025728,12.45 C20.3025728,10.3676219 19.4741325,8.37079303 18,6.9 Z" id="Path"></path>
                <path d="M18.88,20.55 C18.8415075,20.6493161 18.8179189,20.7537802 18.81,20.86 C18.8105885,21.2341333 18.9577795,21.5931358 19.22,21.86 L25.85,28.48 C26.0425103,27.8619221 26.3862291,27.3016603 26.85,26.85 C27.3011553,26.3806572 27.866161,26.0361415 28.49,25.85 L21.86,19.22 C21.5956221,18.9540323 21.2349931,18.8061744 20.86,18.8099276 C20.755167,18.8212717 20.651468,18.8413424 20.55,18.87 C20.3090129,19.1828057 20.0484934,19.480065 19.77,19.76 C19.4882465,20.0396699 19.1911187,20.3034125 18.88,20.55 Z" id="Path"></path>
                <path d="M19.22,19.87 C19.044784,20.0600514 18.9269115,20.2957964 18.88,20.55 C19.1874353,20.3063583 19.4812138,20.0459637 19.76,19.77 C20.0384934,19.490065 20.2990129,19.1928057 20.54,18.88 C20.2850656,18.9307881 20.0494808,19.052045 19.86,19.23 L19.22,19.87 Z" id="Path" fill="#FFFFFF" fill-rule="nonzero"></path>
                <path d="M27.43,30.34 C27.1292417,30.3544109 26.8348279,30.2502889 26.61,30.05 L26.51,29.9 L26.37,29.8 L26.14,29.56 L26.4,28.63 C26.5621009,28.1078522 26.8506434,27.6338182 27.24,27.25 C27.6185685,26.8540644 28.0944195,26.5644159 28.62,26.41 L29.57,26.14 L22.25,18.82 C22.1388549,18.7158074 22.0183455,18.6220778 21.89,18.54 C22.0206446,18.6187771 22.1414881,18.7127665 22.25,18.82 L29.73,26.31 L29.89,26.51 L30.03,26.62 C30.3223321,26.9580511 30.4205221,27.4225651 30.29,27.85 C30.2505889,28.3181418 30.0531054,28.7589532 29.73,29.1 L29.09,29.74 C28.7663905,30.0518217 28.3471931,30.2455684 27.9,30.29 C27.745647,30.323889 27.5880281,30.340657 27.43,30.34 L27.43,30.34 Z M18.24,20.83 C18.250662,20.3529275 18.4315494,19.8953886 18.75,19.54 C18.5323454,19.7921191 18.3811025,20.0946048 18.31,20.42 C18.2729606,20.5539699 18.2495089,20.6913298 18.24,20.83 L18.24,20.83 Z M19.46,18.83 C19.8316561,18.4665871 20.3301995,18.2621485 20.85,18.26 L20.85,18.26 C20.7251722,18.2626141 20.6010444,18.2793881 20.48,18.31 C20.105336,18.3884845 19.7594228,18.5683594 19.48,18.83 L19.31,19 L19.46,18.83 Z" id="Shape" fill="#000000" fill-rule="nonzero"></path>
                <path d="M29.38,26.79 L29.38,26.79 L29.46,26.89 L29.56,26.97 L29.63,26.97 C29.7462866,27.1772584 29.7716245,27.4233978 29.7,27.65 L29.7,27.76 C29.6731134,28.0772268 29.5349799,28.3747451 29.31,28.6 L28.67,29.24 C28.4418979,29.4608701 28.1459247,29.5982863 27.83,29.63 L27.78,29.63 L27.72,29.63 C27.6202415,29.6398276 27.5197585,29.6398276 27.42,29.63 C27.2862526,29.6347875 27.1540661,29.6000016 27.04,29.53 L27,29.6 L26.92,29.5 L26.82,29.41 L26.82,29.41 L26.99,28.81 C27.1162048,28.3761346 27.3541413,27.9830222 27.68,27.67 C27.9889299,27.3633392 28.365783,27.1338014 28.78,27 L29.38,26.83 M20.85,17.71 C20.174111,17.7105543 19.5263154,17.9804691 19.05,18.46 L18.41,19.1 C17.9312373,19.5766598 17.6620937,20.2244126 17.6620937,20.9 C17.6620937,21.5755874 17.9312373,22.2233402 18.41,22.7 L25.89,30.18 L26.09,30.35 C26.09,30.35 26.16,30.45 26.2,30.49 C26.5295963,30.8065151 26.9733192,30.9760677 27.43,30.96 C27.6116231,30.9592879 27.7926504,30.9391738 27.97,30.9 C28.5472637,30.8417866 29.0872,30.5876989 29.5,30.18 L30.14,29.54 C30.5477464,29.1232052 30.8016441,28.5801462 30.86,28 C31.0308272,27.3817691 30.8764535,26.7190916 30.45,26.24 L30.3,26.13 C30.2522388,26.0590604 30.1987252,25.9921684 30.14,25.93 L22.65,18.45 C22.2962852,18.0867361 21.8385793,17.8421605 21.34,17.75 C21.1769993,17.735258 21.0130007,17.735258 20.85,17.75 L20.85,17.71 Z M25.85,28.51 L19.22,21.89 C18.9577795,21.6231358 18.8105885,21.2641333 18.81,20.89 C18.8179189,20.7837802 18.8415075,20.6793161 18.88,20.58 C18.9269115,20.3257964 19.044784,20.0900514 19.22,19.9 L19.86,19.26 C20.0494808,19.082045 20.2850656,18.9607881 20.54,18.91 C20.641468,18.8813424 20.745167,18.8612717 20.85,18.8499276 C21.2249931,18.8461744 21.5856221,18.9940323 21.85,19.26 L28.48,25.89 C27.856161,26.0761415 27.2911553,26.4206572 26.84,26.89 C26.3762291,27.3416603 26.0325103,27.9019221 25.84,28.52 L25.85,28.51 Z" id="Shape" fill="#000000" fill-rule="nonzero"></path>
                <path d="M18.41,19.06 L19.05,18.42 C19.5263154,17.9404691 20.174111,17.6705543 20.85,17.67 C21.0130007,17.655258 21.1769993,17.655258 21.34,17.67 C23.9904988,13.1904677 22.8942495,7.43864729 18.7818894,4.2480599 C14.6695293,1.05747251 8.82570703,1.42481671 5.14526187,5.10526187 C1.46481671,8.78570703 1.09747251,14.6295293 4.2880599,18.7418894 C7.47864729,22.8542495 13.2304677,23.9504988 17.71,21.3 C17.5619734,20.4837261 17.8235304,19.6467439 18.41,19.06 Z M6.89,18 C4.2326188,15.3407085 3.82387809,11.1745549 5.91375893,8.04951014 C8.00363976,4.92446542 12.0100456,3.71095124 15.4827055,5.15113872 C18.9553653,6.5913262 20.9270359,10.2840785 20.1918665,13.9709515 C19.4566971,17.6578245 16.2194551,20.3119099 12.46,20.310001 C10.3707191,20.3078421 8.36758994,19.4771009 6.89,18 Z" id="Shape" fill="#FFFFFF" fill-rule="nonzero"></path>
            </g>
        </g>
    </g>
</svg>