<?xml version="1.0" encoding="UTF-8"?>
<svg width="28px" height="31px" viewBox="0 0 28 31" version="1.1" xmlns="http://www.w3.org/2000/svg" xmlns:xlink="http://www.w3.org/1999/xlink">
    <title>Icon_Shopping_Monline-05</title>
    <g id="Symbols" stroke="none" stroke-width="1" fill="none" fill-rule="evenodd">
        <g id="Icon_Shopping_Monline-05" fill-rule="nonzero">
            <path d="M24.59,20.47 L17.74,15.47 L17.74,15.47 L16.31,14.47 L10.31,14.47 L3.35,19.53 C1.60414554,20.8392648 0.568765446,22.8878382 0.55,25.07 L0.5,29.91 L2,31 L27.5,31 L27.5,26.12 C27.5033355,23.8762724 26.4186117,21.7701937 24.59,20.47 Z" id="Path" fill="#000000"></path>
            <path d="M18.12,2.9 C16.0418736,1.00710103 13.0706969,0.45507883 10.4513491,1.47522257 C7.83200137,2.49536632 6.01681948,4.91150673 5.76633795,7.71131652 C5.51585643,10.5111263 6.87333108,13.2111045 9.27,14.68 C9.66569014,15.0321322 10.0981889,15.3405809 10.56,15.6 C11.6674208,16.248836 12.9265162,16.5937937 14.21,16.6 C15.0581467,16.5962421 15.8997151,16.450911 16.7,16.17 C19.3900897,15.2257241 21.2970735,12.8182325 21.600423,9.98341 C21.9037725,7.14858753 20.5493771,4.3921013 18.12,2.9 Z" id="Path" fill="#000000"></path>
            <path d="M22.47,20.36 L16.7,16.14 C15.8997151,16.420911 15.0581467,16.5662421 14.21,16.57 C12.9265162,16.5637937 11.6674208,16.218836 10.56,15.57 L4,20.45 C2.561987,21.5574071 1.71369796,23.2650498 1.7,25.08 L1.7,28.76 L24.92,28.76 L24.92,25.07 C24.9120051,23.1964406 23.9994681,21.4421348 22.47,20.36 Z" id="Path" fill="#FFFFFF"></path>
            <circle id="Oval" fill="#FFFFFF" transform="translate(13.180668, 8.404829) rotate(-13.280000) translate(-13.180668, -8.404829) " cx="13.1806684" cy="8.40482938" r="6.25"></circle>
        </g>
    </g>
</svg>